<svg width="526" height="94" viewBox="0 0 526 94" fill="none" xmlns="http://www.w3.org/2000/svg">
<g clip-path="url(#clip0_100_5228)">
<path d="M207.72 45.81C205.42 43.77 202.57 42.4 199.09 41.67V59.98C199.08 62.67 198.39 64.62 197.02 65.81C195.65 67.01 193.67 67.61 191.1 67.61L140.65 67.52V78.93H192.59C199.08 78.93 204.13 77.32 207.72 74.1C211.32 70.88 213.12 66.18 213.12 59.98C213.12 53.78 211.32 49 207.72 45.81Z" fill="white"/>
<path d="M159.68 15.33C153.19 15.33 148.14 16.9 144.55 20.02C140.95 23.15 139.15 27.76 139.15 33.84C139.15 39.92 140.95 44.53 144.55 47.66C146.86 49.67 149.69 51.02 153.18 51.74V33.84C153.18 31.33 153.89 29.5 155.29 28.36C156.69 27.22 158.65 26.65 161.17 26.65L208.98 26.74V15.33H159.67H159.68Z" fill="white"/>
<path d="M266.54 15.76H244.87L216.62 78.49H231.89L237.85 65.25L242.94 53.84L255.14 26.73H256.28L268.47 53.84L273.56 65.25L279.53 78.49H294.79L266.54 15.76Z" fill="white"/>
<path d="M314.44 78.49V61.91L281.19 15.76H298.56L321.46 48.4L344.27 15.76H361.64L328.56 61.82V78.49H314.43H314.44Z" fill="white"/>
<path d="M367.78 52.67V15.76H381.99L426.38 60.86V15.76H440.42V78.49H426.21L381.82 33.31V52.67H367.78Z" fill="white"/>
<path d="M497.36 15.76H475.69L447.44 78.49H462.71L468.68 65.25L473.76 53.84L485.96 26.73H487.1L499.29 53.84L504.38 65.25L510.35 78.49H525.61L497.36 15.76Z" fill="white"/>
<path d="M262.83 71.39C263.1 75.06 259.44 78.53 255.76 78.49C251.99 78.45 248.48 75.41 248.55 71.34C248.62 67.32 251.45 64.21 255.74 64.15C259.87 64.09 263.18 67.87 262.83 71.39Z" fill="white"/>
<path d="M328.55 23.01C328.82 26.68 325.16 30.15 321.48 30.11C317.71 30.07 314.2 27.03 314.27 22.96C314.34 18.94 317.17 15.83 321.46 15.77C325.59 15.71 328.9 19.49 328.55 23.01Z" fill="white"/>
<path d="M183.26 47.2C183.53 50.87 179.87 54.34 176.19 54.3C172.42 54.26 168.91 51.22 168.98 47.15C169.05 43.13 171.88 40.02 176.17 39.96C180.3 39.9 183.61 43.68 183.26 47.2Z" fill="white"/>
<path d="M62.9401 22.46C59.8701 22.65 56.8901 23.69 53.9101 25.63L66.1101 37.83L66.8601 38.59C68.7601 40.49 69.6501 42.35 69.5301 44.17C69.4101 45.99 68.4301 47.81 66.6101 49.63L30.8701 85.24L38.9401 93.31L75.6701 56.58C80.2601 51.99 82.6901 47.28 82.9601 42.47C83.2301 37.65 81.1701 33.05 76.7901 28.67C72.3701 24.25 67.7501 22.18 62.9601 22.47L62.9401 22.46Z" fill="white"/>
<path d="M7.42023 34.86C2.83023 39.46 0.370233 44.13 0.0402327 48.88C-0.289767 53.64 1.69023 58.17 6.00023 62.47C10.3002 66.77 14.8302 68.76 19.5902 68.43C22.6402 68.22 25.6002 67.17 28.5802 65.21L16.7702 53.4L15.9302 52.55C14.1502 50.77 13.3602 48.98 13.5402 47.18C13.7302 45.38 14.7102 43.59 16.4902 41.81L50.3502 8.06L42.2802 0L7.42023 34.86Z" fill="white"/>
<path d="M46.6299 40.73C49.4099 43.14 49.2799 48.18 46.6499 50.75C43.9599 53.39 39.3299 53.72 36.4899 50.79C33.6999 47.9 33.4999 43.7 36.4899 40.62C39.3699 37.65 44.3899 37.99 46.6199 40.73H46.6299Z" fill="white"/>
<path d="M382.06 71.39C382.33 75.06 378.67 78.53 374.99 78.49C371.22 78.45 367.71 75.41 367.78 71.34C367.85 67.32 370.68 64.21 374.97 64.15C379.1 64.09 382.41 67.87 382.06 71.39Z" fill="white"/>
<path d="M493.76 71.39C494.03 75.06 490.37 78.53 486.69 78.49C482.92 78.45 479.41 75.41 479.48 71.34C479.55 67.32 482.38 64.21 486.67 64.15C490.8 64.09 494.11 67.87 493.76 71.39Z" fill="white"/>
</g>
<defs>
<clipPath id="clip0_100_5228">
<rect width="525.61" height="93.3" fill="white"/>
</clipPath>
</defs>
</svg>
